<?xml version="1.0" encoding="UTF-8"?>
<svg version="1.1" xmlns="http://www.w3.org/2000/svg" width="500" height="500">
<path d="M0 0 C1.98 0.33 3.96 0.66 6 1 C6.04125 1.61875 6.0825 2.2375 6.125 2.875 C6.41375 3.57625 6.7025 4.2775 7 5 C9.99615946 6.3045656 9.99615946 6.3045656 13 7 C12.62403791 9.78211944 12.32681541 11.5879284 10.5625 13.8125 C9 15 9 15 7 15 C8.54798687 17.70897702 10.0690963 20.07925752 12.125 22.4375 C14.25906664 25.35405775 14.66892049 27.44089527 15 31 C15.9075 30.505 16.815 30.01 17.75 29.5 C23.45515435 27.07646899 30.2909773 26.7680746 36.1875 28.7265625 C40.74306999 31.14180004 44.18559064 34.42103704 45.75 39.375 C46.63120644 48.62766764 44.54662548 53.73874347 39.5 61.25 C35.04663477 68.10855826 33.1859091 74.83318165 32.5625 82.9375 C32.28469143 85.82362236 32.07495409 86.88606979 30.4375 89.375 C23.93803193 93.70797871 17.48642314 94.52478109 9.875 94.75 C8.49393066 94.79966919 8.49393066 94.79966919 7.08496094 94.8503418 C-16.03472945 95.53876429 -16.03472945 95.53876429 -24 90 C-27.32624054 86.63490151 -27.50987015 83.4725088 -28.0625 78.875 C-29.47528329 69.35818025 -34.0078504 61.81787953 -39.01611328 53.73901367 C-41.3334972 49.64305197 -41.35069407 45.57700721 -41 41 C-39.57648118 35.89905758 -36.79543603 32.33506781 -32.5625 29.1875 C-26.68803445 27.22934482 -19.80520985 26.8112989 -13.82421875 28.6796875 C-12.1875 29.5 -12.1875 29.5 -10 31 C-9.79375 29.845 -9.5875 28.69 -9.375 27.5 C-8.14465714 22.43388236 -5.3185372 18.92380499 -2 15 C-2.804375 14.690625 -3.60875 14.38125 -4.4375 14.0625 C-7 13 -7 13 -8 12 C-8.04080783 10.00041636 -8.04254356 7.99954746 -8 6 C-7.05125 5.7525 -6.1025 5.505 -5.125 5.25 C-1.91306809 4.3142923 -1.91306809 4.3142923 -0.625 1.875 C-0.41875 1.25625 -0.2125 0.6375 0 0 Z M-34 40 C-35.27847703 44.13761656 -34.73720477 47.46114949 -32.8828125 51.33203125 C-31.37205713 53.72882423 -29.84296383 55.84326347 -28 58 C-27.55634598 58.57184525 -27.11269196 59.14369049 -26.65559387 59.73286438 C-24.21899253 62.57166221 -22.2691004 64.6696931 -18.57823181 65.63031006 C-15.74205394 65.84100814 -12.98332127 65.84028387 -10.140625 65.75390625 C-9.11443054 65.74874496 -8.08823608 65.74358368 -7.03094482 65.73826599 C-4.87248917 65.72118577 -2.71410813 65.68743089 -0.55615234 65.63793945 C2.75346647 65.5624209 6.06070781 65.535492 9.37109375 65.51757812 C11.47138621 65.49499337 13.57165165 65.46969735 15.671875 65.44140625 C16.66249939 65.42976944 17.65312378 65.41813263 18.67376709 65.40614319 C19.591922 65.38370041 20.5100769 65.36125763 21.45605469 65.33813477 C22.26322937 65.32146255 23.07040405 65.30479034 23.90203857 65.28761292 C26.30170055 65.11415234 26.30170055 65.11415234 29 63 C29 62.34 29 61.68 29 61 C29.66 61 30.32 61 31 61 C31 60.34 31 59.68 31 59 C31.66 59 32.32 59 33 59 C36.80683009 52.60996377 39.85846254 46.55418226 38 39 C36.2604219 36.18504634 35.08896389 35.65480208 32 34 C26.63610799 33.03274078 23.90347044 33.73467143 19.3125 36.625 C13.36217111 40.98789175 7.94121267 46.56299492 6.6328125 54.12109375 C6.4025236 56.0785494 6.19940768 58.03915779 6 60 C5 61 5 61 2.4375 61.0625 C1.633125 61.041875 0.82875 61.02125 0 61 C-1.52636922 58.4560513 -2.01431501 56.81748357 -2.25 53.8125 C-3.45548903 47.68459743 -7.25147519 42.09981923 -12 38 C-12.66 38 -13.32 38 -14 38 C-14 37.34 -14 36.68 -14 36 C-21.67842816 32.16078592 -28.99308082 32.69260444 -34 40 Z M-17 80 C-17 80.66 -17 81.32 -17 82 C-4.13 82 8.74 82 22 82 C20.38331862 78.84066871 20.38331862 78.84066871 17.890625 78.48828125 C0.07108797 76.52582376 0.07108797 76.52582376 -17 80 Z " fill="#272727" transform="translate(245,209)"/>
<path d="M0 0 C6.0358327 3.36238039 9.15339927 8.13738212 11.390625 14.5546875 C12.21495185 17.86256321 12.29465413 20.61147749 12 24 C7.44784545 26.66467584 4.2694336 27.56458217 -1 27 C-7.18857115 25.0249241 -11.23609096 20.10331812 -15 15 C-16.98820463 10.85531009 -17.23955465 8.4814668 -16 4 C-12.28323774 -2.25091835 -6.42219296 -1.66501299 0 0 Z " fill="#232323" transform="translate(229,246)"/>
<path d="M0 0 C2.5625 1.5625 2.5625 1.5625 4 4 C4.91502723 9.39866068 4.22485512 12.16691102 1.25 16.75 C0.18587427 18.18115058 -0.89536718 19.5998779 -2 21 C-2.5775 21.804375 -3.155 22.60875 -3.75 23.4375 C-7.91836342 26.33219682 -13.13906377 27.33960754 -18.171875 26.7421875 C-20.0625 26.25 -20.0625 26.25 -23 25 C-24.98931218 21.02137564 -23.81269793 16.23518638 -23 12 C-20.79537529 6.08127779 -17.02399601 2.55536781 -11.41015625 -0.21875 C-7.39113433 -1.52151237 -3.9933864 -1.29385719 0 0 Z " fill="#202020" transform="translate(278,246)"/>
</svg>
